<svg width="228" height="55" viewBox="0 0 228 55" fill="none" xmlns="http://www.w3.org/2000/svg">
<g filter="url(#filter0_d_149_176)">
<path d="M23.95 52.05C16.4833 52.05 10.65 49.8333 6.45 45.4C2.25 40.9667 0.15 34.6667 0.15 26.5C0.15 21.1333 1.06 16.5367 2.88 12.71C4.74667 8.83666 7.33667 5.92 10.65 3.96C14.01 1.95333 17.8833 0.949998 22.27 0.949998C24.93 0.949998 27.6133 1.72 30.32 3.26C31.3467 3.82 32.3733 4.56667 33.4 5.5C34.1933 4.28666 35.01 3.33 35.85 2.63C36.69 2.02333 37.1567 1.69666 37.25 1.65H39V14.95H36.2C35.5933 12.71 34.6833 10.68 33.47 8.86C32.35 7.08666 30.95 5.61666 29.27 4.45C27.6367 3.28333 25.7467 2.7 23.6 2.7C20.38 2.7 17.6967 4.56666 15.55 8.3C13.45 12.0333 12.4 18.1 12.4 26.5C12.4 35.04 13.5433 41.1533 15.83 44.84C18.1633 48.48 21.3367 50.3 25.35 50.3C27.5433 50.3 29.62 49.6933 31.58 48.48C33.5867 47.22 35.1967 45.5633 36.41 43.51C37.67 41.4567 38.3 39.2867 38.3 37H40.05C40.05 39.66 39.3267 42.1567 37.88 44.49C36.48 46.7767 34.5433 48.62 32.07 50.02C29.6433 51.3733 26.9367 52.05 23.95 52.05ZM57.5773 52.05C53.424 52.05 50.2273 51.1633 47.9873 49.39C45.7473 47.6167 44.6273 45.3533 44.6273 42.6C44.6273 40.78 45.024 38.9833 45.8173 37.21C46.144 36.37 46.564 35.6 47.0773 34.9C48.9907 34.4333 51.0673 34.0133 53.3073 33.64C58.3473 32.8 62.804 32.2867 66.6773 32.1V30C66.6773 24.82 66.0473 21.25 64.7873 19.29C63.5273 17.33 61.5907 16.35 58.9773 16.35C57.9973 16.35 57.1573 16.4667 56.4573 16.7L55.4773 17.05V27.55L54.5673 27.76C53.8207 27.8533 53.1907 27.9 52.6773 27.9C51.0907 27.9 49.8073 27.4333 48.8273 26.5C47.894 25.52 47.4273 24.2367 47.4273 22.65C47.4273 20.5033 48.5007 18.6833 50.6473 17.19C52.8407 15.6967 56.084 14.95 60.3773 14.95C64.0173 14.95 67.144 15.6033 69.7573 16.91C72.4173 18.17 74.424 19.9433 75.7773 22.23C77.1773 24.47 77.8773 27.06 77.8773 30V48.9L82.0773 49.95V51H75.7773C72.9773 51 70.8073 50.1367 69.2673 48.41C68.614 47.71 68.1007 46.8233 67.7273 45.75C67.074 46.9167 66.304 47.9667 65.4173 48.9C63.3173 51 60.704 52.05 57.5773 52.05ZM60.3773 49.6C62.104 49.6 63.6673 48.6667 65.0673 46.8C65.5807 46.1 66.1173 45.1667 66.6773 44V33.85C64.5307 33.85 62.4773 33.9667 60.5173 34.2C59.0707 34.3867 58.0907 34.5033 57.5773 34.55C57.344 35.0633 57.1107 35.7633 56.8773 36.65C56.4107 38.4233 56.1773 40.1733 56.1773 41.9C56.1773 44.5133 56.574 46.45 57.3673 47.71C58.1607 48.97 59.164 49.6 60.3773 49.6ZM84.9102 49.95L89.1102 48.9V18.1L84.9102 17.05V16H91.2102C93.9635 16 96.1335 16.8867 97.7202 18.66C98.3268 19.36 98.8402 20.2233 99.2602 21.25C99.9602 19.9433 100.707 18.8933 101.5 18.1C103.6 16 106.003 14.95 108.71 14.95C111.417 14.95 113.797 15.5567 115.85 16.77C117.903 17.9367 119.49 19.5467 120.61 21.6C121.31 20.2467 122.057 19.15 122.85 18.31C124.997 16.07 127.4 14.95 130.06 14.95C132.533 14.95 134.75 15.4633 136.71 16.49C138.717 17.5167 140.257 18.9167 141.33 20.69C142.45 22.4633 143.01 24.4 143.01 26.5V48.9L147.21 49.95V51H138.11C133.91 51 131.81 48.9 131.81 44.7V26.5C131.81 23.4667 131.343 21.2033 130.41 19.71C129.477 18.17 128.427 17.4 127.26 17.4C125.907 17.4 124.53 18.3333 123.13 20.2C122.57 21.0867 122.08 22.02 121.66 23V48.9L125.86 49.95V51H106.26V49.95L110.46 48.9V26.5C110.46 23.4667 109.993 21.2033 109.06 19.71C108.127 18.17 107.077 17.4 105.91 17.4C104.557 17.4 103.18 18.3333 101.78 20.2C101.22 21.0867 100.73 22.02 100.31 23V48.9L104.51 49.95V51H84.9102V49.95ZM168.924 52.05C162.95 52.05 158.307 50.4167 154.994 47.15C151.68 43.8367 150.024 39.2867 150.024 33.5C150.024 29.72 150.747 26.43 152.194 23.63C153.64 20.83 155.647 18.6833 158.214 17.19C160.827 15.6967 163.814 14.95 167.174 14.95C170.534 14.95 173.474 15.58 175.994 16.84C178.56 18.1 180.52 19.8033 181.874 21.95C183.274 24.05 183.974 26.3833 183.974 28.95C183.974 30.1167 183.857 31.12 183.624 31.96L183.274 33.15C181.267 33.57 179.097 33.92 176.764 34.2C171.864 34.9 166.917 35.25 161.924 35.25C161.924 40.6633 162.67 44.5367 164.164 46.87C165.657 49.1567 167.71 50.3 170.324 50.3C172.144 50.3 173.824 49.88 175.364 49.04C176.95 48.1533 178.187 47.01 179.074 45.61C180.007 44.1633 180.474 42.6933 180.474 41.2H182.224C182.224 43.0667 181.664 44.84 180.544 46.52C179.424 48.2 177.86 49.5533 175.854 50.58C173.847 51.56 171.537 52.05 168.924 52.05ZM161.924 33.5C164.91 33.5 167.337 33.3833 169.204 33.15C169.997 33.1033 170.837 32.9867 171.724 32.8C171.77 32.5667 171.887 32.0533 172.074 31.26C172.307 30.0933 172.424 28.8567 172.424 27.55C172.424 23.6767 171.91 20.8533 170.884 19.08C169.857 17.26 168.62 16.35 167.174 16.35C163.674 16.35 161.924 22.0667 161.924 33.5ZM206.344 52.05C200.557 52.05 196.007 50.4167 192.694 47.15C189.427 43.8367 187.794 39.2867 187.794 33.5C187.794 27.7133 189.427 23.1867 192.694 19.92C196.007 16.6067 200.557 14.95 206.344 14.95C212.13 14.95 216.657 16.6067 219.924 19.92C223.237 23.1867 224.894 27.7133 224.894 33.5C224.894 39.2867 223.237 43.8367 219.924 47.15C216.657 50.4167 212.13 52.05 206.344 52.05ZM206.344 50.65C208.21 50.65 209.774 49.3433 211.034 46.73C212.34 44.1167 212.994 39.7067 212.994 33.5C212.994 27.2933 212.34 22.8833 211.034 20.27C209.774 17.6567 208.21 16.35 206.344 16.35C204.477 16.35 202.89 17.6567 201.584 20.27C200.324 22.8833 199.694 27.2933 199.694 33.5C199.694 39.7067 200.324 44.1167 201.584 46.73C202.89 49.3433 204.477 50.65 206.344 50.65Z" fill="#FFC71B"/>
</g>
<defs>
<filter id="filter0_d_149_176" x="0.149902" y="0.949999" width="227.744" height="53.1" filterUnits="userSpaceOnUse" color-interpolation-filters="sRGB">
<feFlood flood-opacity="0" result="BackgroundImageFix"/>
<feColorMatrix in="SourceAlpha" type="matrix" values="0 0 0 0 0 0 0 0 0 0 0 0 0 0 0 0 0 0 127 0" result="hardAlpha"/>
<feOffset dx="2" dy="1"/>
<feGaussianBlur stdDeviation="0.5"/>
<feComposite in2="hardAlpha" operator="out"/>
<feColorMatrix type="matrix" values="0 0 0 0 0.0313726 0 0 0 0 0.0509804 0 0 0 0 0.14902 0 0 0 1 0"/>
<feBlend mode="normal" in2="BackgroundImageFix" result="effect1_dropShadow_149_176"/>
<feBlend mode="normal" in="SourceGraphic" in2="effect1_dropShadow_149_176" result="shape"/>
</filter>
</defs>
</svg>
